<svg width="40" height="35" viewBox="0 0 40 35" fill="none" xmlns="http://www.w3.org/2000/svg">
<g clip-path="url(#clip0_1_86)">
<path fill-rule="evenodd" clip-rule="evenodd" d="M10.9846 19.3133L16.7897 13.9592L2.4 0.687582C-0.8 3.63893 -0.8 8.43488 2.4 11.3862L10.9846 19.3133ZM24.9026 15.8795C28.0308 17.2322 32.4513 16.2768 35.7128 13.2687C39.641 9.64569 40.3897 4.47137 37.3846 1.69974C34.3692 -1.07188 28.7487 -0.381337 24.8308 3.24164C21.5692 6.24974 20.5436 10.3268 22 13.2119C17.4359 17.4119 1.96923 31.6768 1.96923 31.6768L4.8718 34.3538L18.9846 21.3376L33.0974 34.3538L36 31.6768L21.8872 18.6606L24.9026 15.8795Z" fill="#FD0B7D"/>
</g>
<defs>
<clipPath id="clip0_1_86">
<rect width="40" height="35" fill="white"/>
</clipPath>
</defs>
</svg>
